<svg width="36" height="51" viewBox="0 0 36 51" fill="none" xmlns="http://www.w3.org/2000/svg">
<path d="M35.4232 10.3262L32.1961 46.4784L17.6899 50.5L3.22373 46.4841L0 10.3262H35.4232Z" fill="#264DE4"/>
<path d="M29.4333 44.1765L32.1912 13.2827H17.7117V47.4262L29.4333 44.1765Z" fill="#2965F1"/>
<path d="M7.39038 26.6931L7.78784 31.1277H17.7117V26.6931H7.39038Z" fill="#EBEBEB"/>
<path d="M17.7116 17.7173H17.6963H6.59167L6.9948 22.152H17.7116V17.7173Z" fill="#EBEBEB"/>
<path d="M17.7116 42.8241V38.2102L17.6922 38.2154L12.7533 36.8818L12.4376 33.345H10.0377H7.98596L8.60725 40.308L17.6912 42.8297L17.7116 42.8241Z" fill="#EBEBEB"/>
<path d="M8.33667 0.5H13.7078V2.74609H10.5828V4.99219H13.7078V7.23828H8.33667V0.5Z" fill="black"/>
<path d="M14.782 0.5H20.1531V2.45312H17.0281V2.84375H20.1531V7.33594H14.782V5.28516H17.907V4.89453H14.782V0.5Z" fill="black"/>
<path d="M21.2273 0.5H26.5984V2.45312H23.4734V2.84375H26.5984V7.33594H21.2273V5.28516H24.3523V4.89453H21.2273V0.5Z" fill="black"/>
<path d="M23.157 31.1276L22.6423 36.879L17.6963 38.214V42.8276L26.7875 40.308L26.8542 39.5588L27.8963 27.8839L28.0045 26.6931L28.8051 17.7173H17.6963V22.152H23.9451L23.5416 26.6931H17.6963V31.1276H23.157Z" fill="white"/>
</svg>
