<svg width="36" height="51" viewBox="0 0 36 51" fill="none" xmlns="http://www.w3.org/2000/svg">
<path d="M3.30078 0.5H5.54687V2.72656H7.61719V0.5H9.86328V7.23828H7.61719V4.99219H5.56641V7.23828H3.30078M12.832 2.74609H10.8496V0.5H17.0703V2.74609H15.0781V7.23828H12.832M18.0566 0.5H20.4102L21.8555 2.87305L23.3008 0.5H25.6543V7.23828H23.4082V3.89844L21.8359 6.32031L20.2637 3.89844V7.23828H18.0566M26.7676 0.5H29.0137V5.01172H32.1973V7.23828H26.7676" fill="black"/>
<path d="M3.22266 46.4961L0 10.3242H35.4297L32.207 46.4766L17.6855 50.5" fill="#E44D26"/>
<path d="M17.7148 47.4238V13.293H32.1973L29.4336 44.1523" fill="#F16529"/>
<path d="M6.58203 17.7168H17.7148V22.1504H11.4453L11.8555 26.6914H17.7148V31.1152H7.79297M7.98828 33.3418H12.4414L12.7539 36.8867L17.7148 38.2148V42.8438L8.61328 40.3047" fill="#EBEBEB"/>
<path d="M28.8086 17.7168H17.6953V22.1504H28.3984M27.998 26.6914H17.6953V31.125H23.1641L22.6465 36.8867L17.6953 38.2148V42.8242L26.7773 40.3047" fill="white"/>
</svg>
