<?xml version="1.0" encoding="UTF-8"?>
<!DOCTYPE svg PUBLIC "-//W3C//DTD SVG 1.1//EN" "http://www.w3.org/Graphics/SVG/1.1/DTD/svg11.dtd">
<!-- Creator: CorelDRAW 2020 (64-Bit) -->
<svg xmlns="http://www.w3.org/2000/svg" xml:space="preserve" width="236px" height="236px" version="1.1" style="shape-rendering:geometricPrecision; text-rendering:geometricPrecision; image-rendering:optimizeQuality; fill-rule:evenodd; clip-rule:evenodd"
viewBox="0 0 26.19 26.19"
 xmlns:xlink="http://www.w3.org/1999/xlink"
 xmlns:xodm="http://www.corel.com/coreldraw/odm/2003">
 <defs>
  <style type="text/css">
   <![CDATA[
    .fil0 {fill:#3E201A}
   ]]>
  </style>
 </defs>
 <g id="Слой_x0020_1">
  <metadata id="CorelCorpID_0Corel-Layer"/>
  <path class="fil0" d="M11.22 13.78c0,0.6 0.12,1.07 0.36,1.42 0.24,0.34 0.56,0.52 0.97,0.52 0.6,0 1.08,-0.33 1.42,-0.97 0.35,-0.65 0.52,-1.5 0.52,-2.56 0,-0.52 -0.11,-0.93 -0.35,-1.21 -0.24,-0.29 -0.56,-0.43 -0.96,-0.43 -0.57,0 -1.04,0.32 -1.4,0.95 -0.37,0.63 -0.56,1.39 -0.56,2.28zm5.53 -4.62c-0.28,2.68 -0.42,4.41 -0.42,5.17 0,0.91 0.25,1.36 0.76,1.36 0.52,0 0.94,-0.33 1.28,-1 0.33,-0.67 0.49,-1.53 0.49,-2.58 0,-1.48 -0.46,-2.68 -1.41,-3.63 -0.94,-0.94 -2.25,-1.41 -3.93,-1.41 -1.77,0 -3.25,0.62 -4.42,1.87 -1.18,1.24 -1.77,2.75 -1.77,4.54 0,1.75 0.53,3.13 1.59,4.13 1.06,1.01 2.5,1.51 4.32,1.51 1.4,0 2.68,-0.27 3.83,-0.8l0 1.7c-1.05,0.46 -2.41,0.68 -4.08,0.68 -2.28,0 -4.14,-0.66 -5.56,-1.97 -1.42,-1.32 -2.12,-3.08 -2.12,-5.28 0,-2.25 0.75,-4.15 2.26,-5.67 1.52,-1.53 3.47,-2.29 5.86,-2.29 2.23,0 4.02,0.6 5.4,1.8 1.37,1.21 2.05,2.78 2.05,4.72 0,1.59 -0.41,2.87 -1.24,3.83 -0.83,0.97 -1.86,1.45 -3.08,1.45 -0.59,0 -1.08,-0.17 -1.48,-0.49 -0.39,-0.33 -0.6,-0.78 -0.62,-1.34l-0.06 0c-0.43,1.22 -1.23,1.83 -2.39,1.83 -0.86,0 -1.55,-0.31 -2.06,-0.93 -0.52,-0.62 -0.78,-1.48 -0.78,-2.57 0,-1.42 0.36,-2.57 1.08,-3.46 0.72,-0.89 1.6,-1.34 2.64,-1.34 0.94,0 1.52,0.37 1.75,1.11l0.04 0c0.02,-0.15 0.03,-0.3 0.04,-0.45 0.02,-0.16 0.04,-0.32 0.05,-0.49l1.98 0zm-12.91 -5.32c-1.28,1.27 -2.24,2.75 -2.88,4.33 -0.64,1.57 -0.96,3.25 -0.96,4.92 0,1.68 0.32,3.36 0.96,4.93 0.64,1.58 1.6,3.06 2.88,4.33 1.27,1.28 2.75,2.24 4.33,2.88 1.57,0.64 3.25,0.96 4.92,0.96 1.68,0 3.36,-0.32 4.93,-0.96 1.58,-0.64 3.06,-1.6 4.33,-2.88 1.28,-1.27 2.24,-2.75 2.88,-4.33 0.64,-1.57 0.96,-3.25 0.96,-4.93 0,-1.67 -0.32,-3.35 -0.96,-4.92 -0.64,-1.58 -1.6,-3.06 -2.88,-4.33 -1.27,-1.28 -2.75,-2.24 -4.33,-2.88 -1.57,-0.64 -3.25,-0.96 -4.93,-0.96 -1.67,0 -3.35,0.32 -4.92,0.96 -1.58,0.64 -3.06,1.6 -4.33,2.88z"/>
 </g>
</svg>
