<svg width="101" height="100" viewBox="0 0 101 100" fill="none" xmlns="http://www.w3.org/2000/svg">
<g clip-path="url(#clip0_16_1145)">
<path fill-rule="evenodd" clip-rule="evenodd" d="M11.6111 100H89.3889C95.5254 100 100.5 95.0254 100.5 88.8889V11.1111C100.5 4.97461 95.5254 0 89.3889 0H11.6111C5.47461 0 0.5 4.97461 0.5 11.1111V88.8889C0.5 95.0254 5.47461 100 11.6111 100ZM86.6111 86.1111H71.7717V60.8363C71.7717 53.9066 69.1386 50.0341 63.6538 50.0341C57.687 50.0341 54.5695 54.064 54.5695 60.8363V86.1111H40.2685V37.963H54.5695V44.4485C54.5695 44.4485 58.8695 36.492 69.0869 36.492C79.2995 36.492 86.6111 42.7284 86.6111 55.6267V86.1111ZM23.2074 31.6584C18.3362 31.6584 14.3889 27.6801 14.3889 22.7736C14.3889 17.8672 18.3362 13.8889 23.2074 13.8889C28.0787 13.8889 32.0236 17.8672 32.0236 22.7736C32.0236 27.6801 28.0787 31.6584 23.2074 31.6584ZM15.823 86.1111H30.7353V37.963H15.823V86.1111Z" fill="black"/>
</g>
<defs>
<clipPath id="clip0_16_1145">
<rect width="100" height="100" fill="white" transform="translate(0.5)"/>
</clipPath>
</defs>
</svg>
