<?xml version="1.0" encoding="UTF-8"?>
<!DOCTYPE svg PUBLIC "-//W3C//DTD SVG 1.1//EN" "http://www.w3.org/Graphics/SVG/1.1/DTD/svg11.dtd">
<!-- Creator: CorelDRAW 2020 (64-Bit) -->
<svg xmlns="http://www.w3.org/2000/svg" xml:space="preserve" width="236px" height="236px" version="1.1" style="shape-rendering:geometricPrecision; text-rendering:geometricPrecision; image-rendering:optimizeQuality; fill-rule:evenodd; clip-rule:evenodd"
viewBox="0 0 26.2 26.2"
 xmlns:xlink="http://www.w3.org/1999/xlink"
 xmlns:xodm="http://www.corel.com/coreldraw/odm/2003">
 <defs>
  <style type="text/css">
   <![CDATA[
    .fil0 {fill:#3E201A}
   ]]>
  </style>
 </defs>
 <g id="Слой_x0020_1">
  <metadata id="CorelCorpID_0Corel-Layer"/>
  <path class="fil0" d="M0 13.1c0,7.24 5.87,13.1 13.1,13.1 7.24,0 13.1,-5.86 13.1,-13.1 0,-7.23 -5.86,-13.1 -13.1,-13.1 -7.23,0 -13.1,5.87 -13.1,13.1zm17.77 5.73c-0.14,0.92 -0.65,1.3 -1.61,0.92 -1.45,-0.77 -3.03,-1.81 -4.32,-2.8 -0.7,-0.54 -1.23,-0.87 -0.46,-1.64 1.24,-1.09 2.45,-2.3 3.64,-3.45 0.2,-0.19 0.5,-0.46 0.65,-0.77 0.3,-0.66 -0.45,-0.29 -0.68,-0.17 -0.31,0.17 -0.59,0.37 -0.86,0.55l-5.1 3.44c-0.77,0.46 -4.08,-0.47 -4.38,-0.89 -0.28,-0.4 0.1,-0.68 0.38,-0.84 4.22,-1.78 8.47,-3.51 12.7,-5.27 0.36,-0.14 0.92,-0.42 1.34,-0.17 0.41,0.25 0.29,0.81 0.22,1.32l-1.52 9.77z"/>
 </g>
</svg>
