<svg width="50" height="51" viewBox="0 0 50 51" fill="none" xmlns="http://www.w3.org/2000/svg">
<path d="M20.3568 0.5H43.5406C47.0556 0.5 49.8974 3.34188 49.8974 6.85684V29.1432C49.8974 32.6581 47.0556 35.5 43.5406 35.5H20.3568C16.8419 35.5 14 32.6581 14 29.1432V6.85684C14 3.34188 16.8419 0.5 20.3568 0.5Z" fill="#31A8FF"/>
<path d="M18.3568 2.5H41.5406C45.0556 2.5 47.8974 5.34188 47.8974 8.85684V31.1432C47.8974 34.6581 45.0556 37.5 41.5406 37.5H18.3568C14.8419 37.5 12 34.6581 12 31.1432V8.85684C12 5.34188 14.8419 2.5 18.3568 2.5Z" fill="#001E36"/>
<path d="M20.0769 27.045V11.6539C20.0769 11.5492 20.1218 11.4894 20.2265 11.4894C20.4808 11.4894 20.7201 11.4894 21.0641 11.4744C21.4231 11.4595 21.797 11.4595 22.2008 11.4445C22.6047 11.4296 23.0384 11.4296 23.5021 11.4146C23.9658 11.3997 24.4145 11.3997 24.8632 11.3997C26.0897 11.3997 27.1068 11.5492 27.9444 11.8633C28.6923 12.1176 29.3803 12.5364 29.9487 13.0898C30.4273 13.5685 30.8013 14.1518 31.0406 14.795C31.2649 15.4232 31.3846 16.0663 31.3846 16.7394C31.3846 18.0257 31.0855 19.0877 30.4872 19.9253C29.8889 20.7629 29.0513 21.3911 28.079 21.7501C27.0619 22.124 25.9402 22.2586 24.7137 22.2586C24.3547 22.2586 24.1154 22.2586 23.9658 22.2437C23.8162 22.2287 23.6068 22.2287 23.3226 22.2287V27.03C23.3376 27.1347 23.2628 27.2244 23.1581 27.2394C23.1431 27.2394 23.1282 27.2394 23.0983 27.2394H20.2564C20.1367 27.2394 20.0769 27.1796 20.0769 27.045ZM23.3376 14.3762V19.4018C23.547 19.4168 23.7414 19.4317 23.9209 19.4317H24.7137C25.297 19.4317 25.8803 19.342 26.4337 19.1625C26.9124 19.0279 27.3312 18.7437 27.6602 18.3697C27.9743 17.9958 28.1239 17.4873 28.1239 16.8291C28.1389 16.3655 28.0192 15.9018 27.7799 15.4979C27.5256 15.1091 27.1666 14.8099 26.7329 14.6454C26.1795 14.421 25.5812 14.3313 24.9679 14.3462C24.579 14.3462 24.235 14.3462 23.9508 14.3612C23.6517 14.3462 23.4423 14.3612 23.3376 14.3762Z" fill="#31A8FF"/>
<path d="M40.718 18.4892C40.2692 18.2499 39.7906 18.0854 39.2821 17.9807C38.7286 17.861 38.1752 17.7862 37.6069 17.7862C37.3077 17.7713 36.9936 17.8162 36.7094 17.8909C36.515 17.9358 36.3504 18.0405 36.2457 18.1901C36.171 18.3097 36.1261 18.4593 36.1261 18.5939C36.1261 18.7285 36.1859 18.8632 36.2757 18.9828C36.4103 19.1473 36.5898 19.282 36.7842 19.3867C37.1282 19.5662 37.4872 19.7307 37.8462 19.8803C38.6539 20.1495 39.4316 20.5234 40.1496 20.9721C40.6432 21.2862 41.047 21.705 41.3312 22.2136C41.5705 22.6922 41.6902 23.2157 41.6752 23.7542C41.6902 24.4572 41.4808 25.1602 41.0919 25.7435C40.6731 26.3418 40.0898 26.8055 39.4167 27.0747C38.6838 27.3888 37.7863 27.5533 36.7094 27.5533C36.0214 27.5533 35.3483 27.4935 34.6752 27.3589C34.1517 27.2691 33.6282 27.1046 33.1496 26.8803C33.0449 26.8204 32.9701 26.7157 32.9851 26.5961V23.9935C32.9851 23.9486 33 23.8888 33.0449 23.8589C33.0898 23.829 33.1346 23.8439 33.1795 23.8738C33.7628 24.2179 34.3761 24.4572 35.0342 24.6067C35.6026 24.7563 36.2009 24.8311 36.7992 24.8311C37.3675 24.8311 37.7714 24.7563 38.0406 24.6217C38.2799 24.517 38.4445 24.2627 38.4445 23.9935C38.4445 23.7841 38.3248 23.5897 38.0855 23.3952C37.8462 23.2008 37.3526 22.9764 36.6197 22.6922C35.8569 22.423 35.1539 22.064 34.4957 21.6153C34.0321 21.2862 33.6432 20.8525 33.359 20.3439C33.1197 19.8653 33 19.3418 33.015 18.8183C33.015 18.1751 33.1945 17.5619 33.5235 17.0085C33.8975 16.4102 34.4509 15.9315 35.094 15.6324C35.797 15.2734 36.6795 15.1089 37.7415 15.1089C38.3547 15.1089 38.9829 15.1538 39.5962 15.2435C40.0449 15.3033 40.4786 15.423 40.8825 15.5875C40.9423 15.6025 41.0022 15.6623 41.0321 15.7221C41.047 15.782 41.062 15.8418 41.062 15.9016V18.3397C41.062 18.3995 41.0321 18.4593 40.9872 18.4892C40.8526 18.5191 40.7778 18.5191 40.718 18.4892Z" fill="#31A8FF"/>
<path d="M8.35684 13.5H31.5406C35.0556 13.5 37.8974 16.3419 37.8974 19.8568V42.1432C37.8974 45.6581 35.0556 48.5 31.5406 48.5H8.35684C4.84188 48.5 2 45.6581 2 42.1432V19.8568C2 16.3419 4.84188 13.5 8.35684 13.5Z" fill="#FF9A00"/>
<path d="M6.35684 15.5H29.5406C33.0556 15.5 35.8974 18.3419 35.8974 21.8568V44.1432C35.8974 47.6581 33.0556 50.5 29.5406 50.5H6.35684C2.84188 50.5 0 47.6581 0 44.1432V21.8568C0 18.3419 2.84188 15.5 6.35684 15.5Z" fill="#330000"/>
<path d="M17.3505 36.44H11.7864L10.6496 39.955C10.6197 40.0896 10.5001 40.1794 10.3654 40.1644H7.55347C7.38894 40.1644 7.34407 40.0747 7.38895 39.8952L12.2052 26.0298C12.2501 25.8802 12.2949 25.7157 12.3548 25.5362C12.4146 25.2221 12.4445 24.893 12.4445 24.564C12.4295 24.4892 12.4894 24.4144 12.5642 24.3994H16.4381C16.5577 24.3994 16.6176 24.4443 16.6325 24.5191L22.0919 39.9251C22.1368 40.0896 22.0919 40.1644 21.9424 40.1644H18.8163C18.7116 40.1794 18.6069 40.1046 18.577 39.9999L17.3505 36.44ZM12.6539 33.4037H16.453C16.3633 33.0896 16.2436 32.7157 16.109 32.3268C15.9744 31.923 15.8398 31.4892 15.7052 31.0405C15.5556 30.5768 15.421 30.1281 15.2714 29.6644C15.1219 29.2007 14.9872 28.767 14.8676 28.3332C14.7479 27.9144 14.6432 27.5255 14.5385 27.1665H14.5086C14.374 27.8097 14.2095 28.4529 14.0001 29.096C13.7757 29.814 13.5513 30.5618 13.312 31.3097C13.1026 32.0725 12.8783 32.7755 12.6539 33.4037ZM25.4274 27.017C24.9338 27.0319 24.4552 26.8375 24.0962 26.4935C23.7522 26.1195 23.5727 25.6259 23.5877 25.1174C23.5727 24.6088 23.7672 24.1302 24.1261 23.7862C24.4851 23.4422 24.9637 23.2627 25.4573 23.2627C26.0407 23.2627 26.4894 23.4422 26.8184 23.7862C27.1475 24.1452 27.327 24.6238 27.312 25.1174C27.327 25.6259 27.1475 26.1195 26.7885 26.4935C26.4445 26.8524 25.936 27.0469 25.4274 27.017ZM23.7522 39.9999V28.4828C23.7522 28.3332 23.812 28.2734 23.9466 28.2734H26.9082C27.0428 28.2734 27.1026 28.3482 27.1026 28.4828V39.9999C27.1026 40.1644 27.0428 40.2392 26.9082 40.2392H23.9766C23.827 40.2392 23.7522 40.1494 23.7522 39.9999Z" fill="#FF9A00"/>
</svg>
