<svg width="220" height="75" viewBox="0 0 220 75" fill="none" xmlns="http://www.w3.org/2000/svg">
<path d="M30.3568 12.5H53.5406C57.0556 12.5 59.8974 15.3419 59.8974 18.8568V41.1432C59.8974 44.6581 57.0556 47.5 53.5406 47.5H30.3568C26.8419 47.5 24 44.6581 24 41.1432V18.8568C24 15.3419 26.8419 12.5 30.3568 12.5Z" fill="#31A8FF"/>
<path d="M28.3568 14.5H51.5406C55.0556 14.5 57.8974 17.3419 57.8974 20.8568V43.1432C57.8974 46.6581 55.0556 49.5 51.5406 49.5H28.3568C24.8419 49.5 22 46.6581 22 43.1432V20.8568C22 17.3419 24.8419 14.5 28.3568 14.5Z" fill="#001E36"/>
<path d="M30.0769 39.045V23.6539C30.0769 23.5492 30.1218 23.4894 30.2265 23.4894C30.4808 23.4894 30.7201 23.4894 31.0641 23.4744C31.4231 23.4595 31.797 23.4595 32.2008 23.4445C32.6047 23.4296 33.0384 23.4296 33.5021 23.4146C33.9658 23.3997 34.4145 23.3997 34.8632 23.3997C36.0897 23.3997 37.1068 23.5492 37.9444 23.8633C38.6923 24.1176 39.3803 24.5364 39.9487 25.0898C40.4273 25.5685 40.8013 26.1518 41.0406 26.795C41.2649 27.4232 41.3846 28.0663 41.3846 28.7394C41.3846 30.0257 41.0855 31.0877 40.4872 31.9253C39.8889 32.7629 39.0513 33.3911 38.079 33.7501C37.0619 34.124 35.9402 34.2586 34.7137 34.2586C34.3547 34.2586 34.1154 34.2586 33.9658 34.2437C33.8162 34.2287 33.6068 34.2287 33.3226 34.2287V39.03C33.3376 39.1347 33.2628 39.2244 33.1581 39.2394C33.1431 39.2394 33.1282 39.2394 33.0983 39.2394H30.2564C30.1367 39.2394 30.0769 39.1796 30.0769 39.045ZM33.3376 26.3762V31.4018C33.547 31.4168 33.7414 31.4317 33.9209 31.4317H34.7137C35.297 31.4317 35.8803 31.342 36.4337 31.1625C36.9124 31.0279 37.3312 30.7437 37.6602 30.3697C37.9743 29.9958 38.1239 29.4873 38.1239 28.8291C38.1389 28.3655 38.0192 27.9018 37.7799 27.4979C37.5256 27.1091 37.1666 26.8099 36.7329 26.6454C36.1795 26.421 35.5812 26.3313 34.9679 26.3462C34.579 26.3462 34.235 26.3462 33.9508 26.3612C33.6517 26.3462 33.4423 26.3612 33.3376 26.3762Z" fill="#31A8FF"/>
<path d="M50.718 30.4892C50.2692 30.2499 49.7906 30.0854 49.2821 29.9807C48.7286 29.861 48.1752 29.7862 47.6069 29.7862C47.3077 29.7713 46.9936 29.8162 46.7094 29.8909C46.515 29.9358 46.3504 30.0405 46.2457 30.1901C46.171 30.3097 46.1261 30.4593 46.1261 30.5939C46.1261 30.7285 46.1859 30.8632 46.2757 30.9828C46.4103 31.1473 46.5898 31.282 46.7842 31.3867C47.1282 31.5662 47.4872 31.7307 47.8462 31.8803C48.6539 32.1495 49.4316 32.5234 50.1496 32.9721C50.6432 33.2862 51.047 33.705 51.3312 34.2136C51.5705 34.6922 51.6902 35.2157 51.6752 35.7542C51.6902 36.4572 51.4808 37.1602 51.0919 37.7435C50.6731 38.3418 50.0898 38.8055 49.4167 39.0747C48.6838 39.3888 47.7863 39.5533 46.7094 39.5533C46.0214 39.5533 45.3483 39.4935 44.6752 39.3589C44.1517 39.2691 43.6282 39.1046 43.1496 38.8803C43.0449 38.8204 42.9701 38.7157 42.9851 38.5961V35.9935C42.9851 35.9486 43 35.8888 43.0449 35.8589C43.0898 35.829 43.1346 35.8439 43.1795 35.8738C43.7628 36.2179 44.3761 36.4572 45.0342 36.6067C45.6026 36.7563 46.2009 36.8311 46.7992 36.8311C47.3675 36.8311 47.7714 36.7563 48.0406 36.6217C48.2799 36.517 48.4445 36.2627 48.4445 35.9935C48.4445 35.7841 48.3248 35.5897 48.0855 35.3952C47.8462 35.2008 47.3526 34.9764 46.6197 34.6922C45.8569 34.423 45.1539 34.064 44.4957 33.6153C44.0321 33.2862 43.6432 32.8525 43.359 32.3439C43.1197 31.8653 43 31.3418 43.015 30.8183C43.015 30.1751 43.1945 29.5619 43.5235 29.0085C43.8975 28.4102 44.4509 27.9315 45.094 27.6324C45.797 27.2734 46.6795 27.1089 47.7415 27.1089C48.3547 27.1089 48.9829 27.1538 49.5962 27.2435C50.0449 27.3033 50.4786 27.423 50.8825 27.5875C50.9423 27.6025 51.0022 27.6623 51.0321 27.7221C51.047 27.782 51.062 27.8418 51.062 27.9016V30.3397C51.062 30.3995 51.0321 30.4593 50.9872 30.4892C50.8526 30.5191 50.7778 30.5191 50.718 30.4892Z" fill="#31A8FF"/>
<path d="M18.3568 25.5H41.5406C45.0556 25.5 47.8974 28.3419 47.8974 31.8568V54.1432C47.8974 57.6581 45.0556 60.5 41.5406 60.5H18.3568C14.8419 60.5 12 57.6581 12 54.1432V31.8568C12 28.3419 14.8419 25.5 18.3568 25.5Z" fill="#FF9A00"/>
<path d="M16.3568 27.5H39.5406C43.0556 27.5 45.8974 30.3419 45.8974 33.8568V56.1432C45.8974 59.6581 43.0556 62.5 39.5406 62.5H16.3568C12.8419 62.5 10 59.6581 10 56.1432V33.8568C10 30.3419 12.8419 27.5 16.3568 27.5Z" fill="#330000"/>
<path d="M27.3505 48.44H21.7864L20.6496 51.955C20.6197 52.0896 20.5001 52.1794 20.3654 52.1644H17.5535C17.3889 52.1644 17.3441 52.0747 17.3889 51.8952L22.2052 38.0298C22.2501 37.8802 22.2949 37.7157 22.3548 37.5362C22.4146 37.2221 22.4445 36.893 22.4445 36.564C22.4295 36.4892 22.4894 36.4144 22.5642 36.3994H26.4381C26.5577 36.3994 26.6176 36.4443 26.6325 36.5191L32.0919 51.9251C32.1368 52.0896 32.0919 52.1644 31.9424 52.1644H28.8163C28.7116 52.1794 28.6069 52.1046 28.577 51.9999L27.3505 48.44ZM22.6539 45.4037H26.453C26.3633 45.0896 26.2436 44.7157 26.109 44.3268C25.9744 43.923 25.8398 43.4892 25.7052 43.0405C25.5556 42.5768 25.421 42.1281 25.2714 41.6644C25.1219 41.2007 24.9872 40.767 24.8676 40.3332C24.7479 39.9144 24.6432 39.5255 24.5385 39.1665H24.5086C24.374 39.8097 24.2095 40.4529 24.0001 41.096C23.7757 41.814 23.5513 42.5618 23.312 43.3097C23.1026 44.0725 22.8783 44.7755 22.6539 45.4037ZM35.4274 39.017C34.9338 39.0319 34.4552 38.8375 34.0962 38.4935C33.7522 38.1195 33.5727 37.6259 33.5877 37.1174C33.5727 36.6088 33.7672 36.1302 34.1261 35.7862C34.4851 35.4422 34.9637 35.2627 35.4573 35.2627C36.0407 35.2627 36.4894 35.4422 36.8184 35.7862C37.1475 36.1452 37.327 36.6238 37.312 37.1174C37.327 37.6259 37.1475 38.1195 36.7885 38.4935C36.4445 38.8524 35.936 39.0469 35.4274 39.017ZM33.7522 51.9999V40.4828C33.7522 40.3332 33.812 40.2734 33.9466 40.2734H36.9082C37.0428 40.2734 37.1026 40.3482 37.1026 40.4828V51.9999C37.1026 52.1644 37.0428 52.2392 36.9082 52.2392H33.9766C33.827 52.2392 33.7522 52.1494 33.7522 51.9999V51.9999Z" fill="#FF9A00"/>
<rect x="61" y="33" width="148" height="10" rx="5" fill="#878787" stroke="#554747" stroke-width="2"/>
<rect x="61" y="31" width="130.5" height="13" rx="6.5" fill="#FF9A00" stroke="#286089" stroke-width="2"/>
<circle cx="192.5" cy="37.5" r="11" fill="#EDE9E8" stroke="#FF9A00" stroke-width="3"/>
</svg>