<svg width="220" height="75" viewBox="0 0 220 75" fill="none" xmlns="http://www.w3.org/2000/svg">
<path fill-rule="evenodd" clip-rule="evenodd" d="M26.3691 12.5H60V46.1309C60 55.1339 52.6339 62.5 43.6309 62.5H26.3691C17.3661 62.5 10 55.1339 10 46.1309V28.8691C10 19.8661 17.3661 12.5 26.3691 12.5V12.5Z" fill="url(#paint0_linear_35_2891)"/>
<path fill-rule="evenodd" clip-rule="evenodd" d="M47.6984 51.634C47.9808 51.3442 48.5075 50.8175 48.8362 50.5035C49.1648 50.1896 49.2954 50.0884 49.415 50.0289C49.5345 49.9695 49.6431 49.9519 49.7267 49.9666C49.8104 49.9812 49.8691 50.0282 49.9101 50.0839C49.9512 50.1397 49.9747 50.2042 49.9967 50.3172C50.0187 50.4302 50.0392 50.5915 50.0715 50.8204C50.1038 51.0493 50.1478 51.3457 50.1815 51.6054C50.2153 51.8651 50.2388 52.0881 50.2358 52.2392C50.2329 52.3903 50.2036 52.4695 50.142 52.5561C50.0803 52.6426 49.9864 52.7366 49.8998 52.804C49.8133 52.8715 49.7341 52.9126 49.6402 52.9317C49.5463 52.9508 49.4377 52.9478 49.3086 52.9375C49.1795 52.9273 49.0298 52.9097 48.889 52.8891C48.7481 52.8686 48.6161 52.8451 48.4826 52.8231C48.3491 52.8011 48.2141 52.7805 48.0601 52.7571C47.906 52.7336 47.7329 52.7072 47.6111 52.6823C47.4893 52.6573 47.4189 52.6339 47.3705 52.5942C47.3221 52.5546 47.2957 52.4989 47.2781 52.4402C47.2605 52.3815 47.2517 52.3199 47.2634 52.2509C47.2751 52.182 47.3074 52.1057 47.3426 52.0411C47.3778 51.9766 47.416 51.9237 47.6984 51.634V51.634Z" fill="#FEFEFE"/>
<path fill-rule="evenodd" clip-rule="evenodd" d="M24.2664 22.8679C25.3125 21.9073 26.2253 21.7906 27.093 22.4564C40.8019 36.1653 47.7004 42.989 47.7004 42.989C48.573 43.794 49.0923 44.6362 49.2584 45.5155C49.3768 46.3199 49.4815 47.1063 49.5726 47.8745C49.5908 48.0279 49.5417 48.1235 49.4781 48.2631C49.2737 48.7117 48.8747 49.1748 48.2813 49.6527C46.9256 50.9731 46.2478 51.6333 46.2478 51.6333C45.8475 52.0835 44.8871 51.8628 44.1973 51.7238C42.6368 51.4093 42.4941 51.6617 41.2125 50.4537C27.5269 36.7682 20.6842 29.9254 20.6842 29.9254C20.0279 29.3366 19.7081 28.8847 19.7246 28.5697C19.7123 28.4097 19.7137 28.2598 19.7287 28.1202C19.7815 27.6302 20.1403 27.1061 20.4376 26.7158C20.6574 26.4274 20.9301 26.1277 21.2559 25.8167C22.0776 24.9658 23.0811 23.9828 24.2664 22.8679V22.8679Z" fill="#FEFEFE"/>
<path fill-rule="evenodd" clip-rule="evenodd" d="M22.6238 24.491C22.5698 24.5925 22.5687 24.6913 22.5813 24.7876C22.5939 24.8839 22.6203 24.9778 22.6599 25.0717C22.6996 25.1656 22.7524 25.2595 22.8257 25.3608C22.8991 25.462 22.993 25.5705 23.3407 25.9271C23.6884 26.2836 24.29 26.888 24.8079 27.4118C25.3258 27.9356 25.7601 28.3787 26.2574 28.8775C26.7548 29.3763 27.3152 29.9309 27.6307 30.239C27.9461 30.5471 28.0165 30.6088 28.0503 30.6381C28.084 30.6674 28.0811 30.6645 28.6793 30.0589C29.2776 29.4533 30.477 28.2451 31.0774 27.6418C31.6779 27.0384 31.6793 27.0398 31.6771 27.0376C31.6749 27.0354 31.6691 27.0295 30.9147 26.2757C30.1603 25.5218 28.6575 24.0199 27.9068 23.2697C27.1561 22.5195 27.1576 22.521 27.1171 22.4895C27.0765 22.4579 26.994 22.3934 26.8978 22.3326C26.8016 22.2717 26.6917 22.2146 26.5767 22.1691C26.4618 22.1236 26.3417 22.0897 26.2127 22.0709C26.0837 22.0521 25.9459 22.0483 25.8161 22.0594C25.6864 22.0706 25.5648 22.0965 25.4561 22.1288C25.3473 22.1611 25.2514 22.1997 25.1262 22.2656C25.0011 22.3315 24.8466 22.4247 24.7057 22.5231C24.5648 22.6213 24.4373 22.7248 24.3207 22.8261C24.204 22.9275 24.0983 23.0268 23.9627 23.155C23.8271 23.2833 23.6618 23.4405 23.4783 23.6163C23.2948 23.7922 23.0931 23.9866 22.9388 24.1359C22.7846 24.2853 22.6778 24.3895 22.6238 24.491V24.491Z" fill="url(#paint1_linear_35_2891)"/>
<path fill-rule="evenodd" clip-rule="evenodd" d="M49.478 48.2631C49.3669 48.4914 49.244 48.6858 49.1093 48.8463C48.3617 48.7998 47.7566 48.7448 47.2941 48.6811C46.4282 48.6407 45.4188 48.0597 44.2658 46.9382L29.7677 32.3958L26.4787 35.72L25.7349 34.9762L32.6704 28.0295L48.1556 43.4476C48.7142 44.0356 49.0818 44.7249 49.2584 45.5154C49.4573 47 49.5568 47.7423 49.5568 47.7423C49.6011 47.9282 49.5748 48.1018 49.478 48.2631V48.2631Z" fill="url(#paint2_linear_35_2891)"/>
<rect x="61" y="33" width="148" height="10" rx="5" fill="#878787" stroke="#554747" stroke-width="2"/>
<rect x="61" y="31" width="148" height="13" rx="6.5" fill="#85E31C" stroke="#2BB329" stroke-width="2"/>
<circle cx="197.5" cy="37.5" r="11" fill="#EDE9E8" stroke="#85E31C" stroke-width="3"/>
<defs>
<linearGradient id="paint0_linear_35_2891" x1="19.9777" y1="22.6419" x2="66.0341" y2="69.1208" gradientUnits="userSpaceOnUse">
<stop stop-color="#85E31C"/>
<stop offset="0.368627" stop-color="#2CC02B"/>
<stop offset="1" stop-color="#298822"/>
</linearGradient>
<linearGradient id="paint1_linear_35_2891" x1="25.1111" y1="23.5153" x2="31.4651" y2="29.8222" gradientUnits="userSpaceOnUse">
<stop stop-color="#C6C6C6"/>
<stop offset="0.611765" stop-color="#E2E2E2"/>
<stop offset="1" stop-color="#FEFEFE"/>
</linearGradient>
<linearGradient id="paint2_linear_35_2891" x1="33.0241" y1="30.9697" x2="48.3762" y2="47.4485" gradientUnits="userSpaceOnUse">
<stop stop-color="#C6C6C6"/>
<stop offset="0.670588" stop-color="#E2E2E2"/>
<stop offset="1" stop-color="#FEFEFE"/>
</linearGradient>
</defs>
</svg>