<svg width="50" height="51" viewBox="0 0 50 51" fill="none" xmlns="http://www.w3.org/2000/svg">
<path fill-rule="evenodd" clip-rule="evenodd" d="M16.3691 0.5H50V34.1309C50 43.1339 42.6339 50.5 33.6309 50.5H16.3691C7.36608 50.5 0 43.1339 0 34.1309V16.8691C0 7.86608 7.36608 0.5 16.3691 0.5Z" fill="url(#paint0_linear_35_2967)"/>
<path fill-rule="evenodd" clip-rule="evenodd" d="M37.6984 39.634C37.9808 39.3442 38.5075 38.8175 38.8362 38.5035C39.1648 38.1896 39.2954 38.0884 39.415 38.0289C39.5345 37.9695 39.6431 37.9519 39.7267 37.9666C39.8104 37.9812 39.8691 38.0282 39.9101 38.0839C39.9512 38.1397 39.9747 38.2042 39.9967 38.3172C40.0187 38.4302 40.0392 38.5915 40.0715 38.8204C40.1038 39.0493 40.1478 39.3457 40.1815 39.6054C40.2153 39.8651 40.2388 40.0881 40.2358 40.2392C40.2329 40.3903 40.2036 40.4695 40.142 40.5561C40.0803 40.6426 39.9864 40.7366 39.8998 40.804C39.8133 40.8715 39.7341 40.9126 39.6402 40.9317C39.5463 40.9508 39.4377 40.9478 39.3086 40.9375C39.1795 40.9273 39.0298 40.9097 38.889 40.8891C38.7481 40.8686 38.6161 40.8451 38.4826 40.8231C38.3491 40.8011 38.2141 40.7805 38.0601 40.7571C37.906 40.7336 37.7329 40.7072 37.6111 40.6823C37.4893 40.6573 37.4189 40.6339 37.3705 40.5942C37.3221 40.5546 37.2957 40.4989 37.2781 40.4402C37.2605 40.3815 37.2517 40.3199 37.2634 40.2509C37.2751 40.182 37.3074 40.1057 37.3426 40.0411C37.3778 39.9766 37.416 39.9237 37.6984 39.634Z" fill="#FEFEFE"/>
<path fill-rule="evenodd" clip-rule="evenodd" d="M14.2664 10.8679C15.3125 9.90727 16.2253 9.79062 17.093 10.4564C30.8019 24.1653 37.7004 30.989 37.7004 30.989C38.573 31.794 39.0923 32.6362 39.2584 33.5155C39.3768 34.3199 39.4815 35.1063 39.5726 35.8745C39.5908 36.0279 39.5417 36.1235 39.4781 36.2631C39.2737 36.7117 38.8747 37.1748 38.2813 37.6527C36.9256 38.9731 36.2478 39.6333 36.2478 39.6333C35.8475 40.0835 34.8871 39.8628 34.1973 39.7238C32.6368 39.4093 32.4941 39.6617 31.2125 38.4537C17.5269 24.7682 10.6842 17.9254 10.6842 17.9254C10.0279 17.3366 9.70811 16.8847 9.72465 16.5697C9.7123 16.4097 9.71367 16.2598 9.72871 16.1202C9.78147 15.6302 10.1403 15.1061 10.4376 14.7158C10.6574 14.4274 10.9301 14.1277 11.2559 13.8167C12.0776 12.9658 13.0811 11.9828 14.2664 10.8679Z" fill="#FEFEFE"/>
<path fill-rule="evenodd" clip-rule="evenodd" d="M12.6238 12.491C12.5698 12.5925 12.5687 12.6913 12.5813 12.7876C12.5939 12.8839 12.6203 12.9778 12.6599 13.0717C12.6996 13.1656 12.7524 13.2595 12.8257 13.3608C12.8991 13.462 12.993 13.5705 13.3407 13.9271C13.6884 14.2836 14.29 14.888 14.8079 15.4118C15.3258 15.9356 15.7601 16.3787 16.2574 16.8775C16.7548 17.3763 17.3152 17.9309 17.6307 18.239C17.9461 18.5471 18.0165 18.6088 18.0503 18.6381C18.084 18.6674 18.0811 18.6645 18.6793 18.0589C19.2776 17.4533 20.477 16.2451 21.0774 15.6418C21.6779 15.0384 21.6793 15.0398 21.6771 15.0376C21.6749 15.0354 21.6691 15.0295 20.9147 14.2757C20.1603 13.5218 18.6575 12.0199 17.9068 11.2697C17.1561 10.5195 17.1576 10.521 17.1171 10.4895C17.0765 10.4579 16.994 10.3934 16.8978 10.3326C16.8016 10.2717 16.6917 10.2146 16.5767 10.1691C16.4618 10.1236 16.3417 10.0897 16.2127 10.0709C16.0837 10.0521 15.9459 10.0483 15.8161 10.0594C15.6864 10.0706 15.5648 10.0965 15.4561 10.1288C15.3473 10.1611 15.2514 10.1997 15.1262 10.2656C15.0011 10.3315 14.8466 10.4247 14.7057 10.5231C14.5648 10.6213 14.4373 10.7248 14.3207 10.8261C14.204 10.9275 14.0983 11.0268 13.9627 11.155C13.8271 11.2833 13.6618 11.4405 13.4783 11.6163C13.2948 11.7922 13.0931 11.9866 12.9388 12.1359C12.7846 12.2853 12.6778 12.3895 12.6238 12.491Z" fill="url(#paint1_linear_35_2967)"/>
<path fill-rule="evenodd" clip-rule="evenodd" d="M39.478 36.2631C39.3669 36.4914 39.244 36.6858 39.1093 36.8463C38.3617 36.7998 37.7566 36.7448 37.2941 36.6811C36.4282 36.6407 35.4188 36.0597 34.2658 34.9382L19.7677 20.3958L16.4787 23.72L15.7349 22.9762L22.6704 16.0295L38.1556 31.4476C38.7142 32.0356 39.0818 32.7249 39.2584 33.5154C39.4573 35 39.5568 35.7423 39.5568 35.7423C39.6011 35.9282 39.5748 36.1018 39.478 36.2631Z" fill="url(#paint2_linear_35_2967)"/>
<defs>
<linearGradient id="paint0_linear_35_2967" x1="9.97772" y1="10.6419" x2="56.0341" y2="57.1208" gradientUnits="userSpaceOnUse">
<stop stop-color="#85E31C"/>
<stop offset="0.368627" stop-color="#2CC02B"/>
<stop offset="1" stop-color="#298822"/>
</linearGradient>
<linearGradient id="paint1_linear_35_2967" x1="15.1111" y1="11.5153" x2="21.4651" y2="17.8222" gradientUnits="userSpaceOnUse">
<stop stop-color="#C6C6C6"/>
<stop offset="0.611765" stop-color="#E2E2E2"/>
<stop offset="1" stop-color="#FEFEFE"/>
</linearGradient>
<linearGradient id="paint2_linear_35_2967" x1="23.0241" y1="18.9697" x2="38.3762" y2="35.4485" gradientUnits="userSpaceOnUse">
<stop stop-color="#C6C6C6"/>
<stop offset="0.670588" stop-color="#E2E2E2"/>
<stop offset="1" stop-color="#FEFEFE"/>
</linearGradient>
</defs>
</svg>
