<svg width="220" height="75" viewBox="0 0 220 75" fill="none" xmlns="http://www.w3.org/2000/svg">
  <style>
    g {
      filter: drop-shadow(0px 4px 4px rgba(0, 0, 0, 0.25));
    }
  </style>
  <g>
    <path d="M45.4232 22.3262L42.1961 58.4784L27.6899 62.5L13.2237 58.4841L10 22.3262H45.4232Z" fill="#264DE4" />
    <path d="M39.4333 56.1765L42.1912 25.2827H27.7117V59.4262L39.4333 56.1765Z" fill="#2965F1" />
    <path d="M17.3904 38.6931L17.7878 43.1277H27.7117V38.6931H17.3904Z" fill="#EBEBEB" />
    <path d="M27.7116 29.7173H27.6963H16.5917L16.9948 34.152H27.7116V29.7173Z" fill="#EBEBEB" />
    <path
      d="M27.7116 54.8241V50.2102L27.6922 50.2154L22.7533 48.8818L22.4376 45.345H20.0377H17.986L18.6073 52.308L27.6912 54.8297L27.7116 54.8241Z"
      fill="#EBEBEB" />
    <path d="M18.3367 12.5H23.7078V14.7461H20.5828V16.9922H23.7078V19.2383H18.3367V12.5Z" fill="black" />
    <path d="M24.782 12.5H30.1531V14.4531H27.0281V14.8438H30.1531V19.3359H24.782V17.2852H27.907V16.8945H24.782V12.5Z"
      fill="black" />
    <path
      d="M31.2273 12.5H36.5984V14.4531H33.4734V14.8438H36.5984V19.3359H31.2273V17.2852H34.3523V16.8945H31.2273V12.5Z"
      fill="black" />
    <path
      d="M33.157 43.1276L32.6423 48.879L27.6963 50.214V54.8276L36.7875 52.308L36.8542 51.5588L37.8963 39.8839L38.0045 38.6931L38.8051 29.7173H27.6963V34.152H33.9451L33.5416 38.6931H27.6963V43.1276H33.157Z"
      fill="white" />
    <rect x="61" y="33" width="148" height="10" rx="5" fill="#878787" stroke="#554747" stroke-width="2" />
    <rect x="61" y="31" width="48" height="13" rx="6.5" fill="#2965F1" stroke="#264DE4" stroke-width="2" />
    <circle cx="110" cy="37.5" r="11" fill="#EDE9E8" stroke="#2965F1" stroke-width="3" />
  </g>
</svg>