<svg width="34" height="51" viewBox="0 0 34 51" fill="none" xmlns="http://www.w3.org/2000/svg">
<path d="M8.33333 50.4999C12.9333 50.4999 16.6667 46.7666 16.6667 42.1666V33.8333H8.33333C3.73333 33.8333 0 37.5666 0 42.1666C0 46.7666 3.73333 50.4999 8.33333 50.4999Z" fill="#0ACF83"/>
<path d="M0 25.5001C0 20.9001 3.73333 17.1667 8.33333 17.1667H16.6667V33.8334H8.33333C3.73333 33.8334 0 30.1001 0 25.5001Z" fill="#A259FF"/>
<path d="M0 8.83333C0 4.23333 3.73333 0.5 8.33333 0.5H16.6667V17.1667H8.33333C3.73333 17.1667 0 13.4333 0 8.83333Z" fill="#F24E1E"/>
<path d="M16.6666 0.5H25C29.6 0.5 33.3333 4.23333 33.3333 8.83333C33.3333 13.4333 29.6 17.1667 25 17.1667H16.6666V0.5Z" fill="#FF7262"/>
<path d="M33.3333 25.5001C33.3333 30.1001 29.6 33.8334 25 33.8334C20.4 33.8334 16.6666 30.1001 16.6666 25.5001C16.6666 20.9001 20.4 17.1667 25 17.1667C29.6 17.1667 33.3333 20.9001 33.3333 25.5001Z" fill="#1ABCFE"/>
</svg>
