<svg width="220" height="75" viewBox="0 0 220 75" fill="none" xmlns="http://www.w3.org/2000/svg">
  <style>
    g {
      filter: drop-shadow(0px 4px 4px rgba(0, 0, 0, 0.25));
    }
  </style>
  <g>
    <path
      d="M18.3333 62.4999C22.9333 62.4999 26.6667 58.7666 26.6667 54.1666V45.8333H18.3333C13.7333 45.8333 10 49.5666 10 54.1666C10 58.7666 13.7333 62.4999 18.3333 62.4999Z"
      fill="#0ACF83" />
    <path
      d="M10 37.5001C10 32.9001 13.7333 29.1667 18.3333 29.1667H26.6667V45.8334H18.3333C13.7333 45.8334 10 42.1001 10 37.5001Z"
      fill="#A259FF" />
    <path
      d="M10 20.8333C10 16.2333 13.7333 12.5 18.3333 12.5H26.6667V29.1667H18.3333C13.7333 29.1667 10 25.4333 10 20.8333Z"
      fill="#F24E1E" />
    <path
      d="M26.6666 12.5H35C39.6 12.5 43.3333 16.2333 43.3333 20.8333C43.3333 25.4333 39.6 29.1667 35 29.1667H26.6666V12.5Z"
      fill="#FF7262" />
    <path
      d="M43.3333 37.5001C43.3333 42.1001 39.6 45.8334 35 45.8334C30.4 45.8334 26.6666 42.1001 26.6666 37.5001C26.6666 32.9001 30.4 29.1667 35 29.1667C39.6 29.1667 43.3333 32.9001 43.3333 37.5001Z"
      fill="#1ABCFE" />
    <rect x="61" y="33" width="148" height="10" rx="5" fill="#878787" stroke="#554747" stroke-width="2" />
    <rect x="61" y="31" width="48" height="13" rx="6.5" fill="#0ACF83" stroke="#8442D9" stroke-width="2" />
    <circle cx="110" cy="37.5" r="11" fill="#EDE9E8" stroke="#0ACF83" stroke-width="3" />
  </g>
</svg>