<svg width="220" height="75" viewBox="0 0 220 75" fill="none" xmlns="http://www.w3.org/2000/svg">
<path d="M13.3008 12.5H15.5469V14.7266H17.6172V12.5H19.8633V19.2383H17.6172V16.9922H15.5664V19.2383H13.3008M22.832 14.7461H20.8496V12.5H27.0703V14.7461H25.0781V19.2383H22.832M28.0566 12.5H30.4102L31.8555 14.873L33.3008 12.5H35.6543V19.2383H33.4082V15.8984L31.8359 18.3203L30.2637 15.8984V19.2383H28.0566M36.7676 12.5H39.0137V17.0117H42.1973V19.2383H36.7676" fill="black"/>
<path d="M13.2227 58.4961L10 22.3242H45.4297L42.207 58.4766L27.6855 62.5" fill="#E44D26"/>
<path d="M27.7148 59.4238V25.293H42.1973L39.4336 56.1523" fill="#F16529"/>
<path d="M16.582 29.7168H27.7148V34.1504H21.4453L21.8555 38.6914H27.7148V43.1152H17.793M17.9883 45.3418H22.4414L22.7539 48.8867L27.7148 50.2148V54.8438L18.6133 52.3047" fill="#EBEBEB"/>
<path d="M38.8086 29.7168H27.6953V34.1504H38.3984M37.998 38.6914H27.6953V43.125H33.1641L32.6465 48.8867L27.6953 50.2148V54.8242L36.7773 52.3047" fill="white"/>
<rect x="61" y="33" width="148" height="10" rx="5" fill="#878787" stroke="#554747" stroke-width="2"/>
<rect x="61" y="31" width="60.5" height="13" rx="6.5" fill="#F16529" stroke="#E44D26" stroke-width="2"/>
<circle cx="122.5" cy="37.5" r="11" fill="#EDE9E8" stroke="#F16529" stroke-width="3"/>
</svg>