<svg width="36" height="51" viewBox="0 0 36 51" fill="none" xmlns="http://www.w3.org/2000/svg">
<path d="M0.119141 10.2705L0.124726 10.7173C0.127804 10.9631 0.839795 19.0999 1.70695 28.799L3.28359 46.4339L10.3698 48.4179C14.2672 49.5091 17.5365 50.4074 17.6348 50.4143C17.7331 50.4212 21.0455 49.5319 24.9957 48.4381C31.3291 46.6845 32.1841 46.4204 32.2295 46.2033C32.2926 45.9009 35.3941 10.9129 35.3909 10.5386L35.3887 10.2705H17.7538H0.119141Z" fill="white"/>
<path d="M10.426 48.5365L3.27673 46.5381L3.18331 46.0093C3.10026 45.5393 0 10.9124 0 10.4549C0 10.2893 1.81016 10.2705 17.7539 10.2705C34.5835 10.2705 35.5078 10.2814 35.5065 10.479C35.5009 11.3328 32.2919 46.4181 32.213 46.488C32.1134 46.5762 18.2759 50.4313 17.8135 50.4996C17.6824 50.519 14.3581 49.6355 10.426 48.5365ZM22.2619 41.4754C24.6649 40.8127 26.6656 40.2363 26.708 40.1945C26.7503 40.1528 27.0315 37.3036 27.3328 33.863C27.6341 30.4224 27.911 27.3795 27.9482 27.101L28.0158 26.5946H22.8253H17.6348V28.799V31.0033H20.4372H23.2396L23.1838 31.2714C23.1532 31.4189 23.034 32.686 22.919 34.0873C22.7971 35.5721 22.6526 36.6923 22.5727 36.7722C22.4972 36.8477 21.3553 37.1973 20.0352 37.5492L17.6348 38.189V40.4347C17.6348 41.9675 17.6758 42.6804 17.7639 42.6804C17.8349 42.6804 19.859 42.1382 22.2619 41.4754V41.4754ZM27.9475 23.8243C27.8687 23.2404 27.1671 15.4094 27.1671 15.1141C27.1671 14.9347 26.7546 14.9175 22.4605 14.9175H17.7539V17.2226V19.5277L19.8689 19.6092C21.0322 19.654 22.2564 19.7222 22.5894 19.7608L23.1948 19.8309L23.3418 21.634C23.4227 22.6256 23.519 23.6381 23.5559 23.8839L23.6229 24.3307H25.8194H28.0158L27.9475 23.8243Z" fill="#EDE9E8"/>
<path d="M10.3698 48.4178L3.28362 46.4337L1.70697 28.799C0.839821 19.0998 0.127813 10.9631 0.124735 10.7173L0.119141 10.2705H17.7539H35.3887L35.391 10.5386C35.3942 10.9129 32.2926 45.9009 32.2295 46.2033C32.1841 46.4204 31.3291 46.6845 24.9958 48.4381C21.0455 49.5319 17.7331 50.4212 17.6348 50.4143C17.5365 50.4074 14.2673 49.509 10.3698 48.4178H10.3698ZM22.2673 41.5597C24.7169 40.8786 26.7558 40.2652 26.7983 40.1964C26.8408 40.1277 27.1335 37.133 27.4486 33.5415C27.7638 29.9501 28.0475 26.9178 28.079 26.8031C28.1332 26.6061 27.7164 26.5946 20.5264 26.5946H12.9165L13.2405 23.1689C13.4187 21.2848 13.5688 19.7384 13.574 19.7324C13.5792 19.7264 14.6961 19.6908 16.056 19.6532C18.2857 19.5916 22.8839 19.7695 23.0378 19.9233C23.0952 19.9808 23.4733 23.6901 23.4733 24.1965C23.4733 24.4461 23.507 24.4498 25.7822 24.4498H28.0911L28.0366 23.9434C28.0067 23.6649 27.8111 21.5067 27.602 19.1475L27.2218 14.8579L18.3175 14.8274C11.2336 14.8031 9.41295 14.8274 9.41217 14.9465C9.41155 15.0289 9.35971 15.552 9.29679 16.1091C9.14454 17.457 7.9833 30.481 7.9833 30.8407V31.1225H15.5601H23.1368L23.0693 31.5693C23.0321 31.815 22.9143 33.0617 22.8075 34.3396C22.7007 35.6175 22.579 36.6961 22.5369 36.7365C22.4259 36.843 17.9686 38.0338 17.6907 38.0311C17.5616 38.0299 16.4105 37.7427 15.1325 37.3929L12.809 36.7569L12.7238 35.7568C12.677 35.2067 12.6057 34.4215 12.5654 34.0119L12.4922 33.2672H10.2377H7.9833L7.9883 33.7141C7.99763 34.5497 8.53949 40.1783 8.61818 40.257C8.70918 40.348 17.3682 42.782 17.6348 42.7915C17.7331 42.795 19.8177 42.2407 22.2673 41.5597H22.2673Z" fill="#F0BE25"/>
<path d="M10.3698 48.4178L3.28362 46.4337L1.70697 28.799C0.839821 19.0998 0.127813 10.9631 0.124735 10.7173L0.119141 10.2705H17.7539H35.3887L35.391 10.5386C35.3942 10.9129 32.2926 45.9009 32.2295 46.2033C32.1841 46.4204 31.3291 46.6845 24.9958 48.4381C21.0455 49.5319 17.7331 50.4212 17.6348 50.4143C17.5365 50.4074 14.2673 49.509 10.3698 48.4178H10.3698ZM23.5847 45.7635C26.7019 44.9034 29.3108 44.1393 29.3824 44.0656C29.4938 43.9508 32.186 14.445 32.1752 13.4579L32.1716 13.1302H24.9627H17.7539V13.9643V14.7984H13.5835C10.3272 14.7984 9.41294 14.831 9.41217 14.9473C9.41155 15.0292 9.35971 15.552 9.29679 16.1091C9.14454 17.457 7.9833 30.481 7.9833 30.8407V31.1225H12.8686H17.7539V34.5779C17.7539 37.2641 17.7208 38.0329 17.605 38.0311C17.5231 38.0299 16.4105 37.7427 15.1325 37.3929L12.809 36.7569L12.7238 35.7568C12.677 35.2067 12.6057 34.4215 12.5654 34.0119L12.4922 33.2672H10.2377H7.9833L7.9883 33.7141C8.00257 34.9921 8.55546 40.2091 8.68512 40.2892C8.76393 40.3379 10.8367 40.9335 13.2912 41.6127L17.7539 42.8476V45.0875C17.7539 46.3194 17.7906 47.3274 17.8355 47.3274C17.8804 47.3274 20.4675 46.6237 23.5847 45.7635ZM13.2279 23.2009C13.3992 21.3344 13.5627 19.7862 13.5912 19.7603C13.6198 19.7345 14.568 19.6878 15.6985 19.6565L17.7539 19.5997V23.0971V26.5946H15.3352H12.9165L13.2279 23.2009Z" fill="#E4A126"/>
<path d="M11.3197 6.04066V4.9087H12.9283H14.5369V2.70435V0.5H15.6688H16.8008V3.83631V7.17262H14.0602H11.3197V6.04066ZM17.8732 6.27897V5.38531H19.3626C20.1818 5.38531 20.852 5.35503 20.852 5.31802C20.852 5.28101 20.1818 4.52432 19.3626 3.6365L17.8732 2.02227V1.26114V0.5H20.9712H24.0692V1.38999V2.27997L22.6148 2.31343L21.1604 2.34689L22.6744 3.9773L24.1883 5.6077V6.39016V7.17262H21.0308H17.8732V6.27897Z" fill="#0E0E0F"/>
</svg>
