<svg width="220" height="75" viewBox="0 0 220 75" fill="none" xmlns="http://www.w3.org/2000/svg">
  <style>
    g {
      filter: drop-shadow(0px 4px 4px rgba(0, 0, 0, 0.25));
    }
  </style>
  <g>
    <path
      d="M10.1191 22.2705L10.1247 22.7173C10.1278 22.9631 10.8398 31.0999 11.7069 40.799L13.2836 58.4339L20.3698 60.4179C24.2672 61.5091 27.5365 62.4074 27.6348 62.4143C27.7331 62.4212 31.0455 61.5319 34.9957 60.4381C41.3291 58.6845 42.1841 58.4204 42.2295 58.2033C42.2926 57.9009 45.3941 22.9129 45.3909 22.5386L45.3887 22.2705H27.7538H10.1191Z"
      fill="white" />
    <path
      d="M20.426 60.5365L13.2767 58.5381L13.1833 58.0093C13.1003 57.5393 10 22.9124 10 22.4549C10 22.2893 11.8102 22.2705 27.7539 22.2705C44.5835 22.2705 45.5078 22.2814 45.5065 22.479C45.5009 23.3328 42.2919 58.4181 42.213 58.488C42.1134 58.5762 28.2759 62.4313 27.8135 62.4996C27.6824 62.519 24.3581 61.6355 20.426 60.5365ZM32.2619 53.4754C34.6649 52.8127 36.6656 52.2363 36.708 52.1945C36.7503 52.1528 37.0315 49.3036 37.3328 45.863C37.6341 42.4224 37.911 39.3795 37.9482 39.101L38.0158 38.5946H32.8253H27.6348V40.799V43.0033H30.4372H33.2396L33.1838 43.2714C33.1532 43.4189 33.034 44.686 32.919 46.0873C32.7971 47.5721 32.6526 48.6923 32.5727 48.7722C32.4972 48.8477 31.3553 49.1973 30.0352 49.5492L27.6348 50.189V52.4347C27.6348 53.9675 27.6758 54.6804 27.7639 54.6804C27.8349 54.6804 29.859 54.1382 32.2619 53.4754V53.4754ZM37.9475 35.8243C37.8687 35.2404 37.1671 27.4094 37.1671 27.1141C37.1671 26.9347 36.7546 26.9175 32.4605 26.9175H27.7539V29.2226V31.5277L29.8689 31.6092C31.0322 31.654 32.2564 31.7222 32.5894 31.7608L33.1948 31.8309L33.3418 33.634C33.4227 34.6256 33.519 35.6381 33.5559 35.8839L33.6229 36.3307H35.8194H38.0158L37.9475 35.8243Z"
      fill="#EDE9E8" />
    <path
      d="M20.3698 60.4178L13.2836 58.4337L11.707 40.799C10.8398 31.0998 10.1278 22.9631 10.1247 22.7173L10.1191 22.2705H27.7539H45.3887L45.391 22.5386C45.3942 22.9129 42.2926 57.9009 42.2295 58.2033C42.1841 58.4204 41.3291 58.6845 34.9958 60.4381C31.0455 61.5319 27.7331 62.4212 27.6348 62.4143C27.5365 62.4074 24.2673 61.509 20.3698 60.4178H20.3698ZM32.2673 53.5597C34.7169 52.8786 36.7558 52.2652 36.7983 52.1964C36.8408 52.1277 37.1335 49.133 37.4486 45.5415C37.7638 41.9501 38.0475 38.9178 38.079 38.8031C38.1332 38.6061 37.7164 38.5946 30.5264 38.5946H22.9165L23.2405 35.1689C23.4187 33.2848 23.5688 31.7384 23.574 31.7324C23.5792 31.7264 24.6961 31.6908 26.056 31.6532C28.2857 31.5916 32.8839 31.7695 33.0378 31.9233C33.0952 31.9808 33.4733 35.6901 33.4733 36.1965C33.4733 36.4461 33.507 36.4498 35.7822 36.4498H38.0911L38.0366 35.9434C38.0067 35.6649 37.8111 33.5067 37.602 31.1475L37.2218 26.8579L28.3175 26.8274C21.2336 26.8031 19.4129 26.8274 19.4122 26.9465C19.4115 27.0289 19.3597 27.552 19.2968 28.1091C19.1445 29.457 17.9833 42.481 17.9833 42.8407V43.1225H25.5601H33.1368L33.0693 43.5693C33.0321 43.815 32.9143 45.0617 32.8075 46.3396C32.7007 47.6175 32.579 48.6961 32.5369 48.7365C32.4259 48.843 27.9686 50.0338 27.6907 50.0311C27.5616 50.0299 26.4105 49.7427 25.1325 49.3929L22.809 48.7569L22.7238 47.7568C22.677 47.2067 22.6057 46.4215 22.5654 46.0119L22.4922 45.2672H20.2377H17.9833L17.9883 45.7141C17.9976 46.5497 18.5395 52.1783 18.6182 52.257C18.7092 52.348 27.3682 54.782 27.6348 54.7915C27.7331 54.795 29.8177 54.2407 32.2673 53.5597H32.2673Z"
      fill="#F0BE25" />
    <path
      d="M20.3698 60.4178L13.2836 58.4337L11.707 40.799C10.8398 31.0998 10.1278 22.9631 10.1247 22.7173L10.1191 22.2705H27.7539H45.3887L45.391 22.5386C45.3942 22.9129 42.2926 57.9009 42.2295 58.2033C42.1841 58.4204 41.3291 58.6845 34.9958 60.4381C31.0455 61.5319 27.7331 62.4212 27.6348 62.4143C27.5365 62.4074 24.2673 61.509 20.3698 60.4178H20.3698ZM33.5847 57.7635C36.7019 56.9034 39.3108 56.1393 39.3824 56.0656C39.4938 55.9508 42.186 26.445 42.1752 25.4579L42.1716 25.1302H34.9627H27.7539V25.9643V26.7984H23.5835C20.3272 26.7984 19.4129 26.831 19.4122 26.9473C19.4115 27.0292 19.3597 27.552 19.2968 28.1091C19.1445 29.457 17.9833 42.481 17.9833 42.8407V43.1225H22.8686H27.7539V46.5779C27.7539 49.2641 27.7208 50.0329 27.605 50.0311C27.5231 50.0299 26.4105 49.7427 25.1325 49.3929L22.809 48.7569L22.7238 47.7568C22.677 47.2067 22.6057 46.4215 22.5654 46.0119L22.4922 45.2672H20.2377H17.9833L17.9883 45.7141C18.0026 46.9921 18.5555 52.2091 18.6851 52.2892C18.7639 52.3379 20.8367 52.9335 23.2912 53.6127L27.7539 54.8476V57.0875C27.7539 58.3194 27.7906 59.3274 27.8355 59.3274C27.8804 59.3274 30.4675 58.6237 33.5847 57.7635ZM23.2279 35.2009C23.3992 33.3344 23.5627 31.7862 23.5912 31.7603C23.6198 31.7345 24.568 31.6878 25.6985 31.6565L27.7539 31.5997V35.0971V38.5946H25.3352H22.9165L23.2279 35.2009Z"
      fill="#E4A126" />
    <path
      d="M21.3197 18.0407V16.9087H22.9283H24.5369V14.7043V12.5H25.6688H26.8008V15.8363V19.1726H24.0602H21.3197V18.0407ZM27.8732 18.279V17.3853H29.3626C30.1818 17.3853 30.852 17.355 30.852 17.318C30.852 17.281 30.1818 16.5243 29.3626 15.6365L27.8732 14.0223V13.2611V12.5H30.9712H34.0692V13.39V14.28L32.6148 14.3134L31.1604 14.3469L32.6744 15.9773L34.1883 17.6077V18.3902V19.1726H31.0308H27.8732V18.279Z"
      fill="#0E0E0F" />
    <rect x="61" y="33" width="148" height="10" rx="5" fill="#878787" stroke="#554747" stroke-width="2" />
    <rect x="61" y="31" width="98" height="13" rx="6.5" fill="#F0BE25" stroke="#E4A126" stroke-width="2" />
    <circle cx="160" cy="37.5" r="11" fill="#EDE9E8" stroke="#F0BE25" stroke-width="3" />
  </g>
</svg>