<?xml version="1.0" encoding="UTF-8"?>
<!DOCTYPE svg PUBLIC "-//W3C//DTD SVG 1.1//EN" "http://www.w3.org/Graphics/SVG/1.1/DTD/svg11.dtd">
<!-- Creator: CorelDRAW 2020 (64-Bit) -->
<svg xmlns="http://www.w3.org/2000/svg" xml:space="preserve" width="256px" height="256px" version="1.1" style="shape-rendering:geometricPrecision; text-rendering:geometricPrecision; image-rendering:optimizeQuality; fill-rule:evenodd; clip-rule:evenodd"
viewBox="0 0 66.55 66.55"
 xmlns:xlink="http://www.w3.org/1999/xlink"
 xmlns:xodm="http://www.corel.com/coreldraw/odm/2003">
 <defs>
  <style type="text/css">
   <![CDATA[
    .fil0 {fill:#554747}
   ]]>
  </style>
 </defs>
 <g id="Слой_x0020_1">
  <metadata id="CorelCorpID_0Corel-Layer"/>
  <path class="fil0" d="M0 33.27c0,18.38 14.9,33.28 33.27,33.28 18.38,0 33.28,-14.9 33.28,-33.28 0,-18.37 -14.9,-33.27 -33.28,-33.27 -18.37,0 -33.27,14.9 -33.27,33.27zm12.94 -0.05l22.04 6.58 22.36 -10.02 0 1.15 0.87 0.26 0 1.87 -23.23 10.41 -22.89 -6.84c-1.82,2.09 -2.03,4.36 0,6.91l22.89 6.84 23.23 -10.42 0 1.87 -23.23 10.42 -24.41 -7.29c-3.13,-3.93 -2.8,-7.44 0,-10.65l0.52 -0.23c-2.6,-3.58 -2.19,-6.79 0.38,-9.75l22.37 -10.03 23.5 7.02 0 1.8 -22.36 10.03 -22.04 -6.58c-1.75,2 -1.96,4.2 0,6.65zm11.8 -12.57l2.73 -1.23 18.04 5.39 -2.73 1.23 -18.04 -5.39zm5.47 -2.45l2.73 -1.23 18.03 5.39 -2.73 1.23 -18.03 -5.39z"/>
 </g>
</svg>
