<?xml version="1.0" encoding="UTF-8"?>
<!DOCTYPE svg PUBLIC "-//W3C//DTD SVG 1.1//EN" "http://www.w3.org/Graphics/SVG/1.1/DTD/svg11.dtd">
<!-- Creator: CorelDRAW 2020 (64-Bit) -->
<svg xmlns="http://www.w3.org/2000/svg" xml:space="preserve" width="256px" height="256px" version="1.1" style="shape-rendering:geometricPrecision; text-rendering:geometricPrecision; image-rendering:optimizeQuality; fill-rule:evenodd; clip-rule:evenodd"
viewBox="0 0 167.98 167.98"
 xmlns:xlink="http://www.w3.org/1999/xlink"
 xmlns:xodm="http://www.corel.com/coreldraw/odm/2003">
 <defs>
  <style type="text/css">
   <![CDATA[
    .fil0 {fill:#260C06}
   ]]>
  </style>
 </defs>
 <g id="Слой_x0020_1">
  <metadata id="CorelCorpID_0Corel-Layer"/>
  <g id="_3057035344720">
   <path class="fil0" d="M29.32 84.58l33.37 -25.17 0 13.96 -15.87 11.21 15.87 11.15 0 14.03 -33.37 -25.18zm109.34 0l-33.39 25.18 0 -14.03 15.94 -11.15 -15.94 -11.21 0 -13.96 33.39 25.17zm-60.38 61.77l-9.77 0 21.19 -124.72 9.82 0 -21.24 124.72z"/>
   <path class="fil0" d="M6.77 83.99c0,42.65 34.57,77.22 77.22,77.22 42.65,0 77.22,-34.57 77.22,-77.22 0,-42.65 -34.57,-77.22 -77.22,-77.22 -42.65,0 -77.22,34.57 -77.22,77.22zm-6.77 0c0,46.39 37.6,83.99 83.99,83.99 46.39,0 83.99,-37.6 83.99,-83.99 0,-46.39 -37.6,-83.99 -83.99,-83.99 -46.39,0 -83.99,37.6 -83.99,83.99z"/>
  </g>
 </g>
</svg>
