<?xml version="1.0" encoding="UTF-8"?>
<!DOCTYPE svg PUBLIC "-//W3C//DTD SVG 1.1//EN" "http://www.w3.org/Graphics/SVG/1.1/DTD/svg11.dtd">
<!-- Creator: CorelDRAW 2020 (64-Bit) -->
<svg xmlns="http://www.w3.org/2000/svg" xml:space="preserve" width="256px" height="256px" version="1.1" style="shape-rendering:geometricPrecision; text-rendering:geometricPrecision; image-rendering:optimizeQuality; fill-rule:evenodd; clip-rule:evenodd"
viewBox="0 0 65.19 65.19"
 xmlns:xlink="http://www.w3.org/1999/xlink"
 xmlns:xodm="http://www.corel.com/coreldraw/odm/2003">
 <defs>
  <style type="text/css">
   <![CDATA[
    .fil0 {fill:#260C06}
   ]]>
  </style>
 </defs>
 <g id="Слой_x0020_1">
  <metadata id="CorelCorpID_0Corel-Layer"/>
  <g id="_3056893905792">
   <path class="fil0" d="M18.28 14.95c0.42,3.33 3.35,4.36 1.14,7.37 -2.13,2.91 -4.37,0.59 -7.35,0.83 -1,1.58 -2.61,5.27 -1.69,7.48 2.75,1.86 5.36,-0.09 5.58,4.41 0.17,3.4 -2.6,2.96 -4.56,5.44 0.32,2.66 2.26,5.48 3.7,6.62 2.81,-0.65 4.1,-3.99 7.25,-1.47 2.85,2.27 0.35,4.41 0.75,7.98 1.81,0.7 4.65,1.96 7.48,1.31 0.75,-2.58 0.51,-5.63 4.02,-6 3.69,-0.4 3.26,2.6 5.44,4.8 2.77,-0.18 5.34,-2.02 6.69,-3.73 -0.55,-2.95 -3.69,-4.31 -1.17,-7.4 2.44,-2.97 4.34,-0.16 7.46,-0.64 1.4,-1.83 2.26,-4.81 1.86,-7.43 -2.33,-1 -5.37,-0.54 -6.03,-3.67 -0.8,-3.82 2.4,-4.23 4.95,-5.4 0.13,-2.85 -2.05,-5.61 -3.43,-7.1 -3.26,0.2 -4.47,3.29 -7.48,1.35 -3.87,-2.5 -0.31,-4.57 -0.92,-7.69 -1.66,-1.15 -5,-2.17 -7.29,-1.78 -1.44,2.53 -0.73,5.29 -4.24,5.8 -4.04,0.6 -3.39,-2.55 -5.52,-4.57 -2.69,0.39 -4.93,2.26 -6.64,3.49zm4.58 18.88c0.68,5.37 5.59,9.18 10.96,8.5 5.38,-0.68 9.19,-5.59 8.51,-10.97 -0.68,-5.37 -5.59,-9.18 -10.97,-8.5 -5.37,0.68 -9.18,5.59 -8.5,10.97z"/>
   <path class="fil0" d="M2.63 32.59c0,16.55 13.41,29.97 29.96,29.97 16.55,0 29.97,-13.42 29.97,-29.97 0,-16.55 -13.42,-29.96 -29.97,-29.96 -16.55,0 -29.96,13.41 -29.96,29.96zm-2.63 0c0,18 14.59,32.6 32.59,32.6 18,0 32.6,-14.6 32.6,-32.6 0,-18 -14.6,-32.59 -32.6,-32.59 -18,0 -32.59,14.59 -32.59,32.59z"/>
  </g>
 </g>
</svg>
