<?xml version="1.0" encoding="UTF-8"?>
<!DOCTYPE svg PUBLIC "-//W3C//DTD SVG 1.1//EN" "http://www.w3.org/Graphics/SVG/1.1/DTD/svg11.dtd">
<!-- Creator: CorelDRAW 2020 (64-Bit) -->
<svg xmlns="http://www.w3.org/2000/svg" xml:space="preserve" width="256px" height="256px" version="1.1" style="shape-rendering:geometricPrecision; text-rendering:geometricPrecision; image-rendering:optimizeQuality; fill-rule:evenodd; clip-rule:evenodd"
viewBox="0 0 40.76 40.76"
 xmlns:xlink="http://www.w3.org/1999/xlink"
 xmlns:xodm="http://www.corel.com/coreldraw/odm/2003">
 <defs>
  <style type="text/css">
   <![CDATA[
    .fil0 {fill:#554747}
   ]]>
  </style>
 </defs>
 <g id="Слой_x0020_1">
  <metadata id="CorelCorpID_0Corel-Layer"/>
  <path class="fil0" d="M9.19 16.88c-0.54,1.08 -0.94,1.76 -1.16,3.19 -0.05,0.34 -0.06,0.67 -0.11,0.98 -0.16,1 -1.27,0.89 -0.88,2.47 0.4,1.61 0.99,-0.71 0.43,3.42 -0.46,3.31 -0.98,4.12 0.3,4.15 0.46,0.01 2.44,0.13 2.68,-0.19 0.25,-0.35 -0.52,-4.78 -0.64,-5.8 -0.12,-0.98 0.36,-0.7 0.62,-1.41 0.24,-0.63 0.09,-1.39 -0.25,-1.77 -0.62,-0.7 -0.58,-0.24 -0.39,-1.5 0.2,-1.25 0.62,-2.41 1.38,-2.97 1.12,0.33 8.8,2.96 9.58,2.8 0.89,-0.19 2.24,-0.71 3.17,-1 1.61,-0.51 12.01,-3.61 12.59,-4.09 -0.01,-0.62 -0.2,-0.64 -0.74,-0.8l-13.06 -4.1c-2.8,-0.87 -2.07,-0.8 -4.85,0.08 -3.13,0.99 -6.3,2.04 -9.49,2.98 -0.79,0.24 -1.55,0.49 -2.33,0.73 -0.56,0.17 -2.37,0.54 -1.6,1.24 0.48,0.44 4.02,1.05 4.75,1.59zm19.92 2.63c-0.68,0.13 -1.5,0.46 -2.18,0.66 -7.68,2.25 -4.64,2.58 -10.97,0.66 -0.67,-0.2 -3.88,-1.33 -4.28,-1.25 -0.27,4.45 -0.83,5.19 1.63,6.54 1.77,0.96 4.83,1.39 7.15,1.38 2.6,0 8.99,-0.58 8.88,-3.95 -0.04,-1.31 -0.14,-2.73 -0.23,-4.04zm-29.11 0.87c0,11.26 9.13,20.38 20.38,20.38 11.26,0 20.38,-9.12 20.38,-20.38 0,-11.25 -9.12,-20.38 -20.38,-20.38 -11.25,0 -20.38,9.13 -20.38,20.38z"/>
 </g>
</svg>
