<?xml version="1.0" encoding="UTF-8"?>
<!DOCTYPE svg PUBLIC "-//W3C//DTD SVG 1.1//EN" "http://www.w3.org/Graphics/SVG/1.1/DTD/svg11.dtd">
<!-- Creator: CorelDRAW 2020 (64-Bit) -->
<svg xmlns="http://www.w3.org/2000/svg" xml:space="preserve" width="256px" height="256px" version="1.1" style="shape-rendering:geometricPrecision; text-rendering:geometricPrecision; image-rendering:optimizeQuality; fill-rule:evenodd; clip-rule:evenodd"
viewBox="0 0 41.29 41.29"
 xmlns:xlink="http://www.w3.org/1999/xlink"
 xmlns:xodm="http://www.corel.com/coreldraw/odm/2003">
 <defs>
  <style type="text/css">
   <![CDATA[
    .fil0 {fill:#554747}
   ]]>
  </style>
 </defs>
 <g id="Слой_x0020_1">
  <metadata id="CorelCorpID_0Corel-Layer"/>
  <path class="fil0" d="M7.15 13.32l26.99 0 -13.5 13.5 -13.49 -13.5zm28.13 1.14l0 12.55c0,0.52 -0.43,0.95 -0.95,0.95l-12.55 0 13.5 -13.5zm-15.78 13.5l-12.54 0c-0.53,0 -0.95,-0.43 -0.95,-0.95l0 -12.55 13.49 13.5zm-19.5 -7.32c0,11.4 9.24,20.65 20.64,20.65 11.4,0 20.65,-9.25 20.65,-20.65 0,-11.4 -9.25,-20.64 -20.65,-20.64 -11.4,0 -20.64,9.24 -20.64,20.64z"/>
 </g>
</svg>
