<?xml version="1.0" encoding="UTF-8"?>
<!DOCTYPE svg PUBLIC "-//W3C//DTD SVG 1.1//EN" "http://www.w3.org/Graphics/SVG/1.1/DTD/svg11.dtd">
<!-- Creator: CorelDRAW 2020 (64-Bit) -->
<svg xmlns="http://www.w3.org/2000/svg" xml:space="preserve" width="256px" height="256px" version="1.1" style="shape-rendering:geometricPrecision; text-rendering:geometricPrecision; image-rendering:optimizeQuality; fill-rule:evenodd; clip-rule:evenodd"
viewBox="0 0 66.63 66.63"
 xmlns:xlink="http://www.w3.org/1999/xlink"
 xmlns:xodm="http://www.corel.com/coreldraw/odm/2003">
 <defs>
  <style type="text/css">
   <![CDATA[
    .fil0 {fill:#260C06}
   ]]>
  </style>
 </defs>
 <g id="Слой_x0020_1">
  <metadata id="CorelCorpID_0Corel-Layer"/>
  <g id="_3056891113744">
   <path class="fil0" d="M18.71 11.8l18.83 0 0 10.61c0,0.72 0.58,1.3 1.3,1.3l10.61 0 0 29.59c0,0.84 -0.69,1.53 -1.53,1.53l-29.21 0c-0.84,0 -1.53,-0.69 -1.53,-1.53l0 -39.96c0,-0.85 0.69,-1.54 1.53,-1.54zm21.43 0l9.31 9.31 -9.32 0 0.01 -9.31zm-18.52 17.32c-0.72,0 -1.31,-0.59 -1.31,-1.31 0,-0.71 0.59,-1.3 1.31,-1.3l23.39 0c0.72,0 1.31,0.59 1.31,1.3 0,0.72 -0.59,1.31 -1.31,1.31l-23.39 0zm0 4.84c-0.72,0 -1.31,-0.59 -1.31,-1.31 0,-0.71 0.59,-1.3 1.31,-1.3l23.39 0c0.72,0 1.31,0.59 1.31,1.3 0,0.72 -0.59,1.31 -1.31,1.31l-23.39 0zm0 4.83c-0.72,0 -1.31,-0.58 -1.31,-1.3 0,-0.72 0.59,-1.3 1.31,-1.3l23.39 0c0.72,0 1.31,0.58 1.31,1.3 0,0.72 -0.59,1.3 -1.31,1.3l-23.39 0zm0 4.84c-0.72,0 -1.31,-0.58 -1.31,-1.3 0,-0.72 0.59,-1.3 1.31,-1.3l23.39 0c0.72,0 1.31,0.58 1.31,1.3 0,0.72 -0.59,1.3 -1.31,1.3l-23.39 0zm0 4.84c-0.72,0 -1.31,-0.58 -1.31,-1.3 0,-0.72 0.59,-1.3 1.31,-1.3l23.39 0c0.72,0 1.31,0.58 1.31,1.3 0,0.72 -0.59,1.3 -1.31,1.3l-23.39 0z"/>
   <path class="fil0" d="M2.68 33.32c0,16.91 13.72,30.63 30.64,30.63 16.91,0 30.63,-13.72 30.63,-30.63 0,-16.92 -13.72,-30.64 -30.63,-30.64 -16.92,0 -30.64,13.72 -30.64,30.64zm-2.68 0c0,18.4 14.92,33.31 33.32,33.31 18.4,0 33.31,-14.91 33.31,-33.31 0,-18.4 -14.91,-33.32 -33.31,-33.32 -18.4,0 -33.32,14.92 -33.32,33.32z"/>
  </g>
 </g>
</svg>
