<?xml version="1.0" encoding="UTF-8"?>
<!DOCTYPE svg PUBLIC "-//W3C//DTD SVG 1.1//EN" "http://www.w3.org/Graphics/SVG/1.1/DTD/svg11.dtd">
<!-- Creator: CorelDRAW 2020 (64-Bit) -->
<svg xmlns="http://www.w3.org/2000/svg" xml:space="preserve" width="256px" height="256px" version="1.1" style="shape-rendering:geometricPrecision; text-rendering:geometricPrecision; image-rendering:optimizeQuality; fill-rule:evenodd; clip-rule:evenodd"
viewBox="0 0 25.38 25.38"
 xmlns:xlink="http://www.w3.org/1999/xlink"
 xmlns:xodm="http://www.corel.com/coreldraw/odm/2003">
 <defs>
  <style type="text/css">
   <![CDATA[
    .fil0 {fill:#260C06}
   ]]>
  </style>
 </defs>
 <g id="Слой_x0020_1">
  <metadata id="CorelCorpID_0Corel-Layer"/>
  <path class="fil0" d="M1.02 12.69c0,6.44 5.23,11.67 11.67,11.67 6.44,0 11.67,-5.23 11.67,-11.67 0,-6.44 -5.23,-11.67 -11.67,-11.67 -6.44,0 -11.67,5.23 -11.67,11.67zm-1.02 0c0,7.01 5.68,12.69 12.69,12.69 7.01,0 12.69,-5.68 12.69,-12.69 0,-7.01 -5.68,-12.69 -12.69,-12.69 -7.01,0 -12.69,5.68 -12.69,12.69zm4.93 -0.02l8.41 2.51 8.53 -3.83 0 0.44 0.33 0.1 0 0.72 -8.86 3.97 -8.73 -2.61c-0.69,0.79 -0.78,1.66 0,2.63l8.73 2.61 8.86 -3.97 0 0.71 -8.86 3.97 -9.31 -2.78c-1.19,-1.49 -1.07,-2.83 0,-4.06l0.2 -0.09c-0.99,-1.36 -0.83,-2.59 0.15,-3.71l8.52 -3.83 8.97 2.68 0 0.69 -8.53 3.82 -8.41 -2.51c-0.66,0.77 -0.74,1.6 0,2.54zm4.51 -4.8l1.04 -0.46 6.88 2.05 -1.05 0.47 -6.87 -2.06zm2.08 -0.93l1.04 -0.47 6.88 2.06 -1.04 0.46 -6.88 -2.05z"/>
 </g>
</svg>
