<?xml version="1.0" encoding="UTF-8"?>
<!DOCTYPE svg PUBLIC "-//W3C//DTD SVG 1.1//EN" "http://www.w3.org/Graphics/SVG/1.1/DTD/svg11.dtd">
<!-- Creator: CorelDRAW 2020 (64-Bit) -->
<svg xmlns="http://www.w3.org/2000/svg" xml:space="preserve" width="146px" height="39px" version="1.1" style="shape-rendering:geometricPrecision; text-rendering:geometricPrecision; image-rendering:optimizeQuality; fill-rule:evenodd; clip-rule:evenodd"
viewBox="0 0 18.37 4.91"
 xmlns:xlink="http://www.w3.org/1999/xlink"
 xmlns:xodm="http://www.corel.com/coreldraw/odm/2003">
 <defs>
  <style type="text/css">
   <![CDATA[
    .fil0 {fill:#260C06;fill-rule:nonzero}
   ]]>
  </style>
 </defs>
 <g id="Слой_x0020_1">
  <metadata id="CorelCorpID_0Corel-Layer"/>
  <path class="fil0" d="M8.57 1.84l1.23 0 0 1.23 -1.23 0 0 -1.23zm-2.14 0l1.23 0 0 1.23 -1.23 0 0 -1.23zm8.8 -1.84l3.14 2.45 -3.14 2.46 0 -1.5 1.29 -0.96 -1.29 -0.96 0 -1.49zm-15.23 2.45l3.14 -2.45 0 1.49 -1.3 0.96 1.3 0.96 0 1.5 -3.14 -2.46zm10.7 -0.61l1.23 0 0 1.23 -1.23 0 0 -1.23z"/>
 </g>
</svg>
