<?xml version="1.0" encoding="UTF-8"?>
<!DOCTYPE svg PUBLIC "-//W3C//DTD SVG 1.1//EN" "http://www.w3.org/Graphics/SVG/1.1/DTD/svg11.dtd">
<!-- Creator: CorelDRAW 2020 (64-Bit) -->
<svg xmlns="http://www.w3.org/2000/svg" xml:space="preserve" width="256px" height="256px" version="1.1" style="shape-rendering:geometricPrecision; text-rendering:geometricPrecision; image-rendering:optimizeQuality; fill-rule:evenodd; clip-rule:evenodd"
viewBox="0 0 172.56 172.56"
 xmlns:xlink="http://www.w3.org/1999/xlink"
 xmlns:xodm="http://www.corel.com/coreldraw/odm/2003">
 <defs>
  <style type="text/css">
   <![CDATA[
    .fil0 {fill:#260C06}
   ]]>
  </style>
 </defs>
 <g id="Слой_x0020_1">
  <metadata id="CorelCorpID_0Corel-Layer"/>
  <g id="_3056894267552">
   <path class="fil0" d="M46.07 59.11c6.67,-23.12 29.18,-17.86 30.24,-3.37l1.75 0.47 -2.24 84.16c0.91,4.65 5.66,7.04 10.46,7.09 4.81,0.06 9.67,-2.21 10.8,-6.88l-2.81 -84.37c0.87,-0.51 0.65,-0.03 1.84,-0.53 -0.08,-1.86 -0.31,-6.43 0.32,-7.91 0.46,0.04 2.89,0.24 3.44,0.06 2.5,-0.82 1.18,-2.23 2.67,-2.79 2.41,-0.89 4.56,2.55 7.21,2.56 10.86,0.07 9.06,0.11 9.05,-15 0,-1.84 0.73,-5.59 -2.1,-7.14 -0.81,-0.43 -6.21,-0.41 -7.29,-0.33 -2.84,0.21 -2.44,2.86 -7.21,2.77 -2.27,-2.86 0.44,-2.75 -8.32,-2.66 -1.66,0.02 -2.91,0 -4.56,0.01l-4.81 -0.15c-1.66,0.05 -2.65,0.31 -4.56,0.37 -19.22,0.69 -39.95,11.53 -33.88,33.64z"/>
   <path class="fil0" d="M0 86.28c0,47.65 38.63,86.28 86.28,86.28 47.65,0 86.28,-38.63 86.28,-86.28 0,-47.65 -38.63,-86.28 -86.28,-86.28 -47.65,0 -86.28,38.63 -86.28,86.28zm6.95 0c0,43.81 35.52,79.33 79.33,79.33 43.81,0 79.33,-35.52 79.33,-79.33 0,-43.81 -35.52,-79.33 -79.33,-79.33 -43.81,0 -79.33,35.52 -79.33,79.33z"/>
  </g>
 </g>
</svg>
