<?xml version="1.0" encoding="UTF-8"?>
<!DOCTYPE svg PUBLIC "-//W3C//DTD SVG 1.1//EN" "http://www.w3.org/Graphics/SVG/1.1/DTD/svg11.dtd">
<!-- Creator: CorelDRAW 2020 (64-Bit) -->
<svg xmlns="http://www.w3.org/2000/svg" xml:space="preserve" width="256px" height="256px" version="1.1" style="shape-rendering:geometricPrecision; text-rendering:geometricPrecision; image-rendering:optimizeQuality; fill-rule:evenodd; clip-rule:evenodd"
viewBox="0 0 197.78 197.78"
 xmlns:xlink="http://www.w3.org/1999/xlink"
 xmlns:xodm="http://www.corel.com/coreldraw/odm/2003">
 <defs>
  <style type="text/css">
   <![CDATA[
    .fil0 {fill:#260C06}
   ]]>
  </style>
 </defs>
 <g id="Слой_x0020_1">
  <metadata id="CorelCorpID_0Corel-Layer"/>
  <path class="fil0" d="M7.97 98.89c0,50.22 40.71,90.93 90.92,90.93 50.22,0 90.93,-40.71 90.93,-90.93 0,-50.21 -40.71,-90.92 -90.93,-90.92 -50.21,0 -90.92,40.71 -90.92,90.92zm-7.97 0c0,54.62 44.28,98.89 98.89,98.89 54.62,0 98.89,-44.27 98.89,-98.89 0,-54.61 -44.27,-98.89 -98.89,-98.89 -54.61,0 -98.89,44.28 -98.89,98.89zm98.89 75.58l17.77 -21.83 -13.76 -109.55 -4.01 0 -4 0 -13.77 109.55 17.77 21.83zm0 -139.36l5.86 0 5.18 -11.8 -11.04 0 -11.04 0 5.19 11.8 5.85 0z"/>
 </g>
</svg>
